<svg id="Layer_1" data-name="Layer 1" xmlns="http://www.w3.org/2000/svg" viewBox="0 0 1424 670.63"><defs><style>.cls-1{fill:#fff;fill-rule:evenodd;}</style></defs><title>fiverr2a</title><polygon class="cls-1" points="881.9 226.77 939.85 226.77 1073.73 402.68 1073.73 226.77 1135.78 226.77 1135.78 512.48 1082.3 512.48 943.93 330.85 943.93 512.48 881.9 512.48 881.9 226.77 881.9 226.77"/><polygon class="cls-1" points="1164 226.77 1226.86 226.77 1226.86 351.67 1342.77 226.77 1418.69 226.77 1302.36 348 1424 512.48 1348.49 512.48 1259.92 390.85 1226.86 425.14 1226.86 512.48 1164 512.48 1164 226.77 1164 226.77"/><path class="cls-1" d="M1018.39,1181.66q-57.54,0-90.6-31.83c-22-21.22-33.06-52.66-33.06-95.1V891.46h62.85v161.63c0,23.67,5.31,41.22,16.33,52.64,10.62,12.25,25.71,18,45.31,18q28.78,0,45.31-17.15c10.61-11.43,16.33-28.57,16.33-51.43V891.46h62.85v161.22c0,22-2.85,40.82-8.57,56.73a110.22,110.22,0,0,1-25.3,40,96.16,96.16,0,0,1-39.59,24.08,160.81,160.81,0,0,1-51.85,8.16Z" transform="translate(-288 -664.68)"/><path class="cls-1" d="M654.65,1335.3q-70,0-140.09,0c-137.47-.1-226.56-82-226.56-222.83q0-9.28,0-18.56l.11-26h41.79c25.36,0,50.71.09,76.07.1h23.42l-.08,27.74q0,9.27,0,18.55l.09,40.83a38.84,38.84,0,0,0,38.84,38.76h9.17q77.93,0,155.86,0l9.58,0a38.84,38.84,0,0,0,38.78-38.8l.06-63c.07-71.13.24-142.26.09-213.38l-.13-63.06-10.39.27-133.59.27,167.41-15.55-3.19-31.13L564,779.47l-2.78-5.33-4-7.76-23,2.94-.13-43q0-3.62,0-7.25V664.68H856.66s-.2,352.74-.17,458.9c0,110.27-76.71,211.66-201.85,211.7Z" transform="translate(-288 -664.68)"/><path class="cls-1" d="M939.54,1313.74a32.3,32.3,0,0,0,11.69-2,25.11,25.11,0,0,0,9-5.84,27.44,27.44,0,0,0,5.84-9,30.33,30.33,0,0,0,2.11-11.55v-.27a31,31,0,0,0-2.11-11.55,27.11,27.11,0,0,0-5.84-9.1,25.88,25.88,0,0,0-9-5.91,31.37,31.37,0,0,0-11.69-2.11H923.37v57.34Zm-37.1-76.23h37.1a56.23,56.23,0,0,1,20.45,3.6,48.29,48.29,0,0,1,16,10,44.47,44.47,0,0,1,10.4,15,47.25,47.25,0,0,1,3.67,18.68v.27a47.74,47.74,0,0,1-3.67,18.75A44.3,44.3,0,0,1,976,1318.9,49.19,49.19,0,0,1,960,1329a55.3,55.3,0,0,1-20.45,3.67h-37.1v-95.12Z" transform="translate(-288 -664.68)"/><path class="cls-1" d="M1055.22,1316.45a19.15,19.15,0,0,0,7.95-1.56,17.56,17.56,0,0,0,5.91-4.28,18.84,18.84,0,0,0,3.74-6.32,22.58,22.58,0,0,0,1.29-7.68v-.27a21.56,21.56,0,0,0-1.36-7.68,19.29,19.29,0,0,0-10.06-10.8,18.26,18.26,0,0,0-7.75-1.63,19.15,19.15,0,0,0-7.95,1.56,17.56,17.56,0,0,0-5.91,4.28,18.84,18.84,0,0,0-3.74,6.32,22.58,22.58,0,0,0-1.29,7.68v.27a21.56,21.56,0,0,0,1.36,7.68,19.48,19.48,0,0,0,10,10.8,18.13,18.13,0,0,0,7.81,1.63Zm-.27,17.8a41.18,41.18,0,0,1-15.63-2.92,38.15,38.15,0,0,1-12.43-8,37.32,37.32,0,0,1-8.22-12,36.51,36.51,0,0,1-3-14.74v-.27a36.51,36.51,0,0,1,3-14.74,37.57,37.57,0,0,1,8.29-12,39.29,39.29,0,0,1,12.5-8.15,40.72,40.72,0,0,1,15.76-3,41.18,41.18,0,0,1,15.63,2.92,38.15,38.15,0,0,1,12.43,8,37.32,37.32,0,0,1,8.22,12,36.51,36.51,0,0,1,3,14.74v.27a36.51,36.51,0,0,1-3,14.74,37.57,37.57,0,0,1-8.29,12,39.29,39.29,0,0,1-12.5,8.15,40.71,40.71,0,0,1-15.76,3Z" transform="translate(-288 -664.68)"/><path class="cls-1" d="M1158.11,1334.25a38.16,38.16,0,0,1-15.15-3,36.6,36.6,0,0,1-19.91-20,37.66,37.66,0,0,1-2.85-14.61v-.27a38.16,38.16,0,0,1,2.85-14.68,37.74,37.74,0,0,1,7.88-12.09,36.68,36.68,0,0,1,12-8.15,38.86,38.86,0,0,1,15.42-3q10.33,0,17.12,3.26a38.43,38.43,0,0,1,12,9l-12.64,13.59a33.75,33.75,0,0,0-7.27-5.84,18.26,18.26,0,0,0-9.31-2.17,16,16,0,0,0-7.13,1.56,17.65,17.65,0,0,0-5.57,4.28,19.46,19.46,0,0,0-3.67,6.32,22.58,22.58,0,0,0-1.29,7.68v.27a23.58,23.58,0,0,0,1.29,7.88,18.71,18.71,0,0,0,3.74,6.39,17.75,17.75,0,0,0,5.84,4.28,18,18,0,0,0,7.61,1.56,18.62,18.62,0,0,0,9-2.11,38.21,38.21,0,0,0,7.68-5.64l12.09,12.23a46.47,46.47,0,0,1-12.09,9.58q-6.79,3.74-17.66,3.74Z" transform="translate(-288 -664.68)"/><path class="cls-1" d="M1238.58,1333.85a33.91,33.91,0,0,1-8.63-1,15.38,15.38,0,0,1-6.66-3.6,17.31,17.31,0,0,1-4.35-6.73,30.2,30.2,0,0,1-1.56-10.53v-34.51h-8.7v-17.66h8.7v-18.62H1238v18.62h17.12v17.66H1238v31.23q0,7.09,6.66,7.09a20.21,20.21,0,0,0,10.19-2.72v16.58a31,31,0,0,1-16.31,4.21Z" transform="translate(-288 -664.68)"/><path class="cls-1" d="M1314.93,1316.45a19.15,19.15,0,0,0,7.95-1.56,17.56,17.56,0,0,0,5.91-4.28,18.84,18.84,0,0,0,3.74-6.32,22.58,22.58,0,0,0,1.29-7.68v-.27a21.56,21.56,0,0,0-1.36-7.68,19.29,19.29,0,0,0-10.06-10.8,18.26,18.26,0,0,0-7.75-1.63,19.15,19.15,0,0,0-7.95,1.56,17.56,17.56,0,0,0-5.91,4.28,18.84,18.84,0,0,0-3.74,6.32,22.58,22.58,0,0,0-1.29,7.68v.27a21.56,21.56,0,0,0,1.36,7.68,19.48,19.48,0,0,0,10,10.8,18.13,18.13,0,0,0,7.81,1.63Zm-.27,17.8a41.18,41.18,0,0,1-15.63-2.92,38.15,38.15,0,0,1-12.43-8,37.32,37.32,0,0,1-8.22-12,36.51,36.51,0,0,1-3-14.74v-.27a36.51,36.51,0,0,1,3-14.74,37.57,37.57,0,0,1,8.29-12,39.29,39.29,0,0,1,12.5-8.15,40.72,40.72,0,0,1,15.76-3,41.18,41.18,0,0,1,15.63,2.92,38.15,38.15,0,0,1,12.43,8,37.32,37.32,0,0,1,8.22,12,36.51,36.51,0,0,1,3,14.74v.27a36.51,36.51,0,0,1-3,14.74,37.58,37.58,0,0,1-8.29,12,39.29,39.29,0,0,1-12.5,8.15,40.71,40.71,0,0,1-15.76,3Z" transform="translate(-288 -664.68)"/><path class="cls-1" d="M1380.32,1259.79H1401v14.68a30.3,30.3,0,0,1,8.56-12q5.44-4.48,14.68-4.08V1280h-1.09q-10.33,0-16.24,6.25t-5.91,19.43v26.9h-20.65v-72.83Z" transform="translate(-288 -664.68)"/><path class="cls-1" d="M1474.17,1334a51,51,0,0,1-31.25-11l8.83-13.59a49.24,49.24,0,0,0,11.89,6.52,32.18,32.18,0,0,0,11.07,2.17q4.48,0,6.59-1.49a4.62,4.62,0,0,0,2.11-3.94v-.27a3.91,3.91,0,0,0-1.22-2.85,10.26,10.26,0,0,0-3.33-2.11,48.84,48.84,0,0,0-4.82-1.7q-2.72-.82-5.71-1.77a77.19,77.19,0,0,1-7.68-2.65,27.52,27.52,0,0,1-7-4.08,19.94,19.94,0,0,1-5.1-6.18,18.75,18.75,0,0,1-2-9v-.27a21.42,21.42,0,0,1,7.81-17.12,24.27,24.27,0,0,1,8.42-4.48,35,35,0,0,1,10.39-1.49,46.73,46.73,0,0,1,14.06,2.24,52,52,0,0,1,13.11,6.18l-7.88,14.27a65,65,0,0,0-10.6-5,27.7,27.7,0,0,0-9.1-1.83,9.46,9.46,0,0,0-5.71,1.43,4.33,4.33,0,0,0-1.9,3.6v.27a3.55,3.55,0,0,0,1.22,2.65,13.58,13.58,0,0,0,3.26,2.17,43.12,43.12,0,0,0,4.69,2q2.65,1,5.64,1.9,3.8,1.22,7.75,2.92a31.86,31.86,0,0,1,7.07,4.14,20.54,20.54,0,0,1,5.16,6,16.87,16.87,0,0,1,2,8.56v.27a24.26,24.26,0,0,1-2.11,10.53,19.34,19.34,0,0,1-5.91,7.27,26.64,26.64,0,0,1-8.9,4.28,40.42,40.42,0,0,1-10.94,1.43Z" transform="translate(-288 -664.68)"/><polygon class="cls-1" points="1241.74 572.82 1261.04 572.82 1305.61 631.39 1305.61 572.82 1326.26 572.82 1326.26 667.94 1308.46 667.94 1262.4 607.47 1262.4 667.94 1241.74 667.94 1241.74 572.82 1241.74 572.82"/><path class="cls-1" d="M1671.18,1334q-11.14,0-18.68-4.21a43.9,43.9,0,0,1-12.43-10.06l13.18-14.68a37.81,37.81,0,0,0,8.22,7,17.34,17.34,0,0,0,9.17,2.51q6,0,9.38-3.74t3.4-12v-61.28h21.47v62.23a42.74,42.74,0,0,1-2.31,14.81,28.94,28.94,0,0,1-6.66,10.6,28.14,28.14,0,0,1-10.67,6.59,41.83,41.83,0,0,1-14.06,2.24Z" transform="translate(-288 -664.68)"/></svg>